# xmcd
#
# Track frame offsets:
#	150
#	29027
#	44992
#	60172
#	86522
#	97710
#	112735
#	126610
#	141072
#	154810
#	165675
#	183760
#	197362
#	213015
#	225320
#	238602
#	249897
#	264570
#	279232
#	288637
#	304452
#	323760
#
# Disc length: 4464 seconds
#
# Revision: 1
# Processed by: cddbd v1.5.1PL0 Copyright (c) Steve Scherf et al.
# Submitted via: CDex 1.50Beta5
#
DISCID=2a116e16
DTITLE=Mozart, W.A. - B将モhm, Karl - Mozart: 46 Symphonien [CD2/10)
DYEAR=1959
DGENRE=Classical
TTITLE0=Sinfonia il sol magg. "Neue Lambacher" - 1. Allegro
TTITLE1=Sinfonia il sol magg. "Neue Lambacher" - 2. Andante un poco allegretto
TTITLE2=Sinfonia il sol magg. "Neue Lambacher" - 3. Menuetto - Trio
TTITLE3=Sinfonia il sol magg. "Neue Lambacher" - 4. Allegro
TTITLE4=Sinfonia KV Anh. 214 - 1. Allegro
TTITLE5=Sinfonia KV Anh. 214 - 2. Andante
TTITLE6=Sinfonia KV Anh. 214 - 3. Menuetto - Trio
TTITLE7=Sinfonia KV Anh. 214 - 4. Allegro
TTITLE8=Sinfonia No. 8 KV 48 - 1. Allegro
TTITLE9=Sinfonia No. 8 KV 48 - 2. Andante
TTITLE10=Sinfonia No. 8 KV 48 - 3. Menuetto - Trio
TTITLE11=Sinfonia No. 8 KV 48 - 4. Molto allegro
TTITLE12=Sinfonia No. 9 KV 73 - 1. Allegro
TTITLE13=Sinfonia No. 9 KV 73 - 2. Andante
TTITLE14=Sinfonia No. 9 KV 73 - 3. Menuetto - Trio
TTITLE15=Sinfonia No. 9 KV 73 - 4. Molto allegro
TTITLE16=Sinfonia No. 10 KV 74 - 1. Allegro
TTITLE17=Sinfonia No. 10 KV 74 - 2. Andante
TTITLE18=Sinfonia No. 10 KV 74 - 3. Allegro
TTITLE19=Sinfonia KV 81 (73l) - 1. Allegro
TTITLE20=Sinfonia KV 81 (73l) - 2. Andante
TTITLE21=Sinfonia KV 81 (73l) - 3. Allegro molto
EXTD=
EXTT0=
EXTT1=
EXTT2=
EXTT3=
EXTT4=
EXTT5=
EXTT6=
EXTT7=
EXTT8=
EXTT9=
EXTT10=
EXTT11=
EXTT12=
EXTT13=
EXTT14=
EXTT15=
EXTT16=
EXTT17=
EXTT18=
EXTT19=
EXTT20=
EXTT21=
PLAYORDER=
